<svg width="330" height="172" viewBox="0 0 330 172" fill="none" xmlns="http://www.w3.org/2000/svg">
<path d="M20.3073 60.4897V169.947H0V60.4897H20.3073Z" fill="white"/>
<path d="M95.4265 100.816V91.4546H114.726V169.947H95.4265V160.874C88.7054 168.171 80.3521 171.82 70.3665 171.82C59.0367 171.82 49.7232 167.883 42.426 160.01C35.1289 152.136 31.4803 142.247 31.4803 130.341C31.4803 118.531 35.1769 108.785 42.5701 101.104C49.9632 93.3269 59.2287 89.4383 70.3665 89.4383C80.1601 89.4383 88.5134 93.2309 95.4265 100.816ZM95.7146 130.629C95.7146 124.484 93.6022 119.155 89.3775 114.642C85.2489 110.226 80.0161 108.017 73.679 108.017C67.246 108.017 61.9652 110.226 57.8365 114.642C53.8039 119.059 51.7875 124.388 51.7875 130.629C51.7875 136.966 53.8519 142.343 57.9805 146.759C62.1092 151.176 67.342 153.385 73.679 153.385C80.0161 153.385 85.2489 151.176 89.3775 146.759C93.6022 142.247 95.7146 136.87 95.7146 130.629Z" fill="white"/>
<path d="M174.32 89.4383C185.457 89.4383 194.771 93.423 202.26 101.392C209.749 109.265 213.494 119.059 213.494 130.773C213.494 142.487 209.749 152.28 202.26 160.154C194.771 167.931 185.457 171.82 174.32 171.82C164.43 171.82 156.269 167.931 149.836 160.154V169.947H130.105V60.4897H150.412V100.528C156.941 93.1349 164.91 89.4383 174.32 89.4383ZM155.597 114.786C151.564 119.107 149.548 124.388 149.548 130.629C149.548 136.87 151.564 142.247 155.597 146.759C159.629 151.08 164.814 153.241 171.151 153.241C177.488 153.241 182.673 151.08 186.706 146.759C190.738 142.343 192.755 136.966 192.755 130.629C192.755 124.292 190.738 118.963 186.706 114.642C182.673 110.322 177.488 108.161 171.151 108.161C164.814 108.161 159.629 110.37 155.597 114.786Z" fill="white"/>
<path d="M288.233 0H268.07V41.7667H226.303V61.9299H268.07V103.697H288.233V61.9299H330V41.7667H288.233V0Z" fill="#59D5AE"/>
</svg>
